<svg width="21" height="20" viewBox="0 0 21 20" fill="none" xmlns="http://www.w3.org/2000/svg">
<path fill-rule="evenodd" clip-rule="evenodd" d="M17.5439 2.23828C17.0009 1.69521 16.501 0.5 16.501 0.5C16.501 0.5 16.0011 1.69521 15.458 2.23828C14.9149 2.78135 13.7197 3.28125 13.7197 3.28125C13.7197 3.28125 14.9149 3.78115 15.458 4.32422C16.0011 4.86729 16.501 6.0625 16.501 6.0625C16.501 6.0625 17.0009 4.86729 17.5439 4.32422C18.087 3.78115 19.2822 3.28125 19.2822 3.28125C19.2822 3.28125 18.087 2.78135 17.5439 2.23828ZM8.45922 6.00195L8.97585 7.61643L9.79182 7.98132C10.0702 8.1058 10.3338 8.25869 10.5789 8.43659L11.3034 8.96252L12.9639 8.60184L13.4237 9.39824L12.2829 10.6538L12.3743 11.5422C12.3897 11.6921 12.3977 11.8448 12.3977 12C12.3977 12.155 12.3898 12.3074 12.3744 12.457L12.2832 13.3453L13.4244 14.6014L12.9646 15.3978L11.3038 15.0371L10.5793 15.5632C10.334 15.7412 10.0701 15.8943 9.79152 16.0189L8.97544 16.3837L8.45857 17.9989H7.53897L7.02212 16.3838L6.20598 16.0189C5.92773 15.8945 5.66424 15.7418 5.41924 15.564L4.69481 15.0384L3.03434 15.399L2.57454 14.6026L3.71476 13.3476L3.62314 12.4589C3.60766 12.3087 3.59966 12.1556 3.59966 12C3.59966 11.8451 3.60759 11.6926 3.62296 11.5429L3.71416 10.6547L2.57379 9.39948L3.03359 8.60308L4.69296 8.96353L5.4176 8.43724C5.66327 8.25881 5.92758 8.10552 6.20672 7.98079L7.02313 7.61599L7.53962 6.00195H8.45922ZM10.1416 4.69718L10.6083 6.15556C11.0142 6.3371 11.3978 6.55969 11.7537 6.81806L13.2526 6.49247C13.6776 6.40016 14.1135 6.59308 14.3309 6.96968L15.5207 9.0304C15.7381 9.407 15.6872 9.88096 15.3948 10.2028L14.3638 11.3376C14.3862 11.5554 14.3977 11.7764 14.3977 12C14.3977 12.2233 14.3863 12.4439 14.3639 12.6613L15.3956 13.7968C15.688 14.1187 15.7389 14.5926 15.5214 14.9692L14.3317 17.03C14.1142 17.4066 13.6783 17.5995 13.2534 17.5072L11.7543 17.1816C11.3981 17.4402 11.0142 17.663 10.6078 17.8447L10.1409 19.3037C10.0084 19.7179 9.62339 19.9989 9.18852 19.9989H6.80902C6.37415 19.9989 5.98913 19.7179 5.85659 19.3037L5.38973 17.8448C4.98395 17.6634 4.60051 17.4409 4.24469 17.1828L2.74556 17.5084C2.3206 17.6007 1.8847 17.4078 1.66726 17.0312L0.47751 14.9705C0.260076 14.5939 0.310958 14.1199 0.60338 13.7981L1.63369 12.664C1.61119 12.4457 1.59966 12.2242 1.59966 12C1.59966 11.7767 1.61109 11.5561 1.63342 11.3387L0.602632 10.2041C0.31021 9.8822 0.259327 9.40825 0.476762 9.03164L1.66651 6.97093C1.88395 6.59432 2.31985 6.40141 2.74481 6.49372L4.24231 6.819C4.59911 6.55986 4.98372 6.33668 5.39081 6.15478L5.85724 4.69718C5.98978 4.283 6.3748 4.00195 6.80967 4.00195H9.18917C9.62404 4.00195 10.0091 4.283 10.1416 4.69718ZM9.00098 12C9.00098 12.5523 8.55326 13 8.00098 13C7.44869 13 7.00098 12.5523 7.00098 12C7.00098 11.4477 7.44869 11 8.00098 11C8.55326 11 9.00098 11.4477 9.00098 12ZM8.00098 15C9.65783 15 11.001 13.6569 11.001 12C11.001 10.3431 9.65783 9 8.00098 9C6.34412 9 5.00098 10.3431 5.00098 12C5.00098 13.6569 6.34412 15 8.00098 15ZM18.001 9C18.001 9 18.3606 9.85974 18.7512 10.2504C19.1418 10.641 20.0016 11.0006 20.0016 11.0006C20.0016 11.0006 19.1418 11.3602 18.7512 11.7508C18.3606 12.1415 18.001 13.0012 18.001 13.0012C18.001 13.0012 17.6414 12.1415 17.2507 11.7508C16.8601 11.3602 16.0004 11.0006 16.0004 11.0006C16.0004 11.0006 16.8601 10.641 17.2507 10.2504C17.6414 9.85974 18.001 9 18.001 9Z" fill="black"/>
</svg>
