<svg width="22" height="17" viewBox="0 0 22 17" fill="none" xmlns="http://www.w3.org/2000/svg">
<path fill-rule="evenodd" clip-rule="evenodd" d="M15.543 2.23828C14.9999 1.69521 14.5 0.5 14.5 0.5C14.5 0.5 14.0001 1.69521 13.457 2.23828C12.914 2.78135 11.7188 3.28125 11.7188 3.28125C11.7188 3.28125 12.914 3.78115 13.457 4.32422C14.0001 4.86729 14.5 6.0625 14.5 6.0625C14.5 6.0625 14.9999 4.86729 15.543 4.32422C16.086 3.78115 17.2812 3.28125 17.2812 3.28125C17.2812 3.28125 16.086 2.78135 15.543 2.23828ZM3.16797 5.61328C2.82016 5.26547 2.5 4.5 2.5 4.5C2.5 4.5 2.17984 5.26547 1.83203 5.61328C1.48422 5.96109 0.71875 6.28125 0.71875 6.28125C0.71875 6.28125 1.48422 6.60141 1.83203 6.94922C2.17984 7.29703 2.5 8.0625 2.5 8.0625C2.5 8.0625 2.82016 7.29703 3.16797 6.94922C3.51578 6.60141 4.28125 6.28125 4.28125 6.28125C4.28125 6.28125 3.51578 5.96109 3.16797 5.61328ZM22 6C22 7.10457 21.1046 8 20 8C19.9349 8 19.8704 7.99689 19.8069 7.9908L16.8208 12.1713C16.9359 12.4238 17 12.7044 17 13C17 14.1046 16.1046 15 15 15C13.8954 15 13 14.1046 13 13C13 12.9348 13.0031 12.8704 13.0092 12.8069L8.8287 9.82077C8.57621 9.93587 8.29559 10 8 10C7.87421 10 7.75112 9.98839 7.63177 9.96617L3.88686 14.3352C3.96014 14.5432 4 14.7669 4 15C4 16.1046 3.10457 17 2 17C0.895431 17 0 16.1046 0 15C0 13.8954 0.895431 13 2 13C2.12578 13 2.24885 13.0116 2.3682 13.0338L6.11312 8.66474C6.03986 8.45677 6 8.23304 6 8C6 6.89543 6.89543 6 8 6C9.10457 6 10 6.89543 10 8C10 8.06512 9.99689 8.12951 9.9908 8.19304L14.1714 11.1792C14.4239 11.0641 14.7044 11 15 11C15.0651 11 15.1295 11.0031 15.1931 11.0092L18.1792 6.82864C18.0641 6.57617 18 6.29557 18 6C18 4.89543 18.8954 4 20 4C21.1046 4 22 4.89543 22 6Z" fill="black"/>
</svg>
